<?xml version="1.0" encoding="utf-8"?>
<!-- Generator: Adobe Illustrator 20.1.0, SVG Export Plug-In . SVG Version: 6.00 Build 0)  -->
<!DOCTYPE svg PUBLIC "-//W3C//DTD SVG 1.0//EN" "http://www.w3.org/TR/2001/REC-SVG-20010904/DTD/svg10.dtd">
<svg version="1.0" id="Layer_1" xmlns="http://www.w3.org/2000/svg" xmlns:xlink="http://www.w3.org/1999/xlink" x="0px" y="0px"
	 width="32px" height="32px" viewBox="0 0 32 32" style="enable-background:new 0 0 32 32;" xml:space="preserve">

	<path d="M14.7,31.2c-1.6,0-3.3-0.3-4.9-0.8C5.3,28.7,1.7,24.8,0.5,20C-0.8,15.1,0.6,9.7,4,6c3.5-3.8,8.7-5.7,13.9-5
		c5,0.7,9.6,3.8,12.1,8.3c2.4,4.4,2.7,9.8,0.8,14.5c-0.9,2.1-2.1,4-3.8,5.6c-0.2,0.2-0.6,0.2-0.8,0c-0.2-0.2-0.2-0.6,0-0.8
		c1.5-1.5,2.7-3.3,3.5-5.2c1.8-4.4,1.5-9.4-0.7-13.5c-2.3-4.2-6.6-7.1-11.2-7.7C12.9,1.5,8.1,3.2,4.9,6.7c-3.2,3.5-4.4,8.5-3.3,13
		c1.1,4.4,4.4,8,8.6,9.5c3.2,1.1,6.8,1,9.9-0.4c4.2-1.9,7-5.9,7.4-10.4c0.4-4.7-1.9-9.2-5.9-11.6c-4.1-2.4-9.5-2.1-13.1,0.9
		c-3.6,3-5,8.1-3.3,12.3c1.6,4,5.4,6.6,9.7,6.6c0,0,0,0,0,0c3.8,0,7.4-2.4,8.8-5.9c1.7-4.3-0.2-9.4-4.2-11.4
		c-2.2-1-4.7-1.1-6.9-0.1c-2.1,0.9-3.7,2.6-4.4,4.7c-0.7,2.1-0.4,4.4,0.8,6.3c1.1,1.8,3,2.9,5,3.1c1.9,0.2,3.9-0.5,5.3-1.9
		c1.3-1.3,1.9-3,1.7-4.8c-0.3-2.2-1.8-4.1-3.9-4.7c-2.1-0.6-4.5,0.3-5.5,2.2c-1,1.9-0.5,4.3,1.2,5.4c1.3,0.9,3.1,0.7,4.1-0.3
		c0.7-0.7,0.9-1.9,0.6-2.9c-0.2-0.4-0.6-1.2-1.6-1.3c-0.7-0.1-1.4,0.3-1.6,1c-0.1,0.3,0,0.6,0.2,0.6c0.2,0.1,0.3,0,0.4-0.1
		c0.2-0.2,0.6-0.3,0.8-0.1s0.3,0.6,0.1,0.8c-0.4,0.5-1.1,0.7-1.8,0.5c-0.8-0.3-1.1-1.3-0.9-2c0.3-1.4,1.7-2,2.9-1.9
		c1.2,0.1,2.2,0.9,2.6,2.1c0.5,1.4,0.1,3-0.9,4.1c-1.4,1.4-3.8,1.6-5.6,0.5c-2.2-1.4-2.9-4.5-1.6-6.9c1.3-2.4,4.2-3.5,6.8-2.8
		c2.5,0.7,4.4,2.9,4.7,5.6c0.3,2.1-0.5,4.2-2,5.7c-1.6,1.7-4,2.5-6.3,2.2C11.4,24.3,9.3,23,8,20.9c-1.4-2.2-1.8-4.9-1-7.3
		c0.8-2.5,2.6-4.4,5-5.4c2.5-1.1,5.4-1,7.8,0.2c4.6,2.2,6.8,8,4.8,12.8c-1.6,4-5.6,6.7-9.8,6.7c0,0,0,0,0,0c-4.8,0-9-2.9-10.8-7.3
		C2.2,15.8,3.8,10.2,7.8,6.9c4-3.3,9.9-3.7,14.5-1c4.4,2.6,6.9,7.6,6.4,12.7c-0.5,4.9-3.6,9.3-8.1,11.3
		C18.7,30.8,16.7,31.2,14.7,31.2z"/>

</svg>
