<?xml version="1.0" encoding="utf-8"?>
<!-- Generator: Adobe Illustrator 20.1.0, SVG Export Plug-In . SVG Version: 6.00 Build 0)  -->
<!DOCTYPE svg PUBLIC "-//W3C//DTD SVG 1.0//EN" "http://www.w3.org/TR/2001/REC-SVG-20010904/DTD/svg10.dtd">
<svg version="1.0" id="Layer_1" xmlns="http://www.w3.org/2000/svg" xmlns:xlink="http://www.w3.org/1999/xlink" x="0px" y="0px"
	 width="32px" height="32px" viewBox="0 0 32 32" style="enable-background:new 0 0 32 32;" xml:space="preserve">

	<g>
		<path d="M31.4,2.5c-0.7,0-1-0.4-1.3-0.8c-0.5-0.6-0.6-0.6-1.1,0c-0.3,0.3-0.6,0.8-1.3,0.8s-1-0.4-1.3-0.8c-0.5-0.6-0.6-0.6-1.1,0
			c-0.3,0.3-0.6,0.8-1.3,0.8c-0.7,0-1-0.4-1.3-0.8c-0.2-0.3-0.3-0.4-0.5-0.4c-0.2,0-0.3,0.1-0.5,0.4c-0.3,0.3-0.6,0.8-1.3,0.8
			c-0.7,0-1-0.4-1.3-0.8c-0.5-0.6-0.6-0.6-1.1,0c-0.3,0.3-0.6,0.8-1.3,0.8c-0.7,0-1-0.4-1.3-0.8c-0.5-0.6-0.6-0.6-1.1,0
			c-0.3,0.3-0.6,0.8-1.3,0.8c-0.7,0-1-0.4-1.3-0.8c-0.5-0.6-0.6-0.6-1.1,0C10.6,2,10.3,2.5,9.6,2.5c-0.7,0-1-0.4-1.3-0.8
			c-0.5-0.6-0.6-0.6-1.1,0C7,2,6.6,2.5,5.9,2.5S4.9,2,4.6,1.7C4.2,1.1,4,1.1,3.6,1.7C3.3,2,3,2.5,2.3,2.5S1.3,2,1,1.7
			C0.8,1.4,0.7,1.3,0.5,1.3C0.2,1.3,0,1.1,0,0.8s0.2-0.5,0.5-0.5c0.7,0,1,0.4,1.3,0.8c0.5,0.6,0.6,0.6,1.1,0
			c0.3-0.3,0.6-0.8,1.3-0.8c0.7,0,1,0.4,1.3,0.8c0.5,0.6,0.6,0.6,1.1,0c0.3-0.3,0.6-0.8,1.3-0.8s1,0.4,1.3,0.8
			c0.5,0.6,0.6,0.6,1.1,0c0.3-0.3,0.6-0.8,1.3-0.8s1,0.4,1.3,0.8c0.5,0.6,0.6,0.6,1.1,0C14,0.8,14.4,0.4,15,0.4c0.7,0,1,0.4,1.3,0.8
			c0.5,0.6,0.6,0.6,1.1,0c0.3-0.3,0.6-0.8,1.3-0.8c0.7,0,1,0.4,1.3,0.8c0.5,0.6,0.6,0.6,1.1,0c0.3-0.3,0.6-0.8,1.3-0.8
			c0.7,0,1,0.4,1.3,0.8c0.5,0.6,0.6,0.6,1.1,0c0.3-0.3,0.6-0.8,1.3-0.8c0.7,0,1,0.4,1.3,0.8c0.2,0.3,0.3,0.4,0.5,0.4
			s0.3-0.1,0.5-0.4c0.3-0.3,0.6-0.8,1.3-0.8c0.7,0,1,0.4,1.3,0.8c0.2,0.3,0.3,0.4,0.5,0.4c0.3,0,0.5,0.2,0.5,0.5S31.7,2.5,31.4,2.5z
			"/>
	</g>
	<g>
		<path d="M31.4,7.4c-0.7,0-1-0.4-1.3-0.8c-0.5-0.6-0.6-0.6-1.1,0c-0.3,0.3-0.6,0.8-1.3,0.8s-1-0.4-1.3-0.8c-0.5-0.6-0.6-0.6-1.1,0
			c-0.3,0.3-0.6,0.8-1.3,0.8c-0.7,0-1-0.4-1.3-0.8c-0.2-0.3-0.3-0.4-0.5-0.4c-0.2,0-0.3,0.1-0.5,0.4c-0.3,0.3-0.6,0.8-1.3,0.8
			c-0.7,0-1-0.4-1.3-0.8c-0.5-0.6-0.6-0.6-1.1,0c-0.3,0.3-0.6,0.8-1.3,0.8c-0.7,0-1-0.4-1.3-0.8C15.1,6,15,6,14.5,6.6
			c-0.3,0.3-0.6,0.8-1.3,0.8c-0.7,0-1-0.4-1.3-0.8c-0.5-0.6-0.6-0.6-1.1,0c-0.3,0.3-0.6,0.8-1.3,0.8c-0.7,0-1-0.4-1.3-0.8
			C7.8,6,7.7,6,7.2,6.6C7,6.9,6.6,7.4,5.9,7.4s-1-0.4-1.3-0.8C4.2,6,4,6,3.6,6.6C3.3,6.9,3,7.4,2.3,7.4S1.3,6.9,1,6.6
			C0.8,6.3,0.7,6.2,0.5,6.2C0.2,6.2,0,6,0,5.8s0.2-0.5,0.5-0.5c0.7,0,1,0.4,1.3,0.8c0.5,0.6,0.6,0.6,1.1,0c0.3-0.3,0.6-0.8,1.3-0.8
			c0.7,0,1,0.4,1.3,0.8c0.5,0.6,0.6,0.6,1.1,0c0.3-0.3,0.6-0.8,1.3-0.8s1,0.4,1.3,0.8c0.5,0.6,0.6,0.6,1.1,0
			c0.3-0.3,0.6-0.8,1.3-0.8s1,0.4,1.3,0.8c0.5,0.6,0.6,0.6,1.1,0C14,5.8,14.4,5.3,15,5.3c0.7,0,1,0.4,1.3,0.8c0.5,0.6,0.6,0.6,1.1,0
			c0.3-0.3,0.6-0.8,1.3-0.8c0.7,0,1,0.4,1.3,0.8c0.5,0.6,0.6,0.6,1.1,0c0.3-0.3,0.6-0.8,1.3-0.8c0.7,0,1,0.4,1.3,0.8
			c0.5,0.6,0.6,0.6,1.1,0c0.3-0.3,0.6-0.8,1.3-0.8c0.7,0,1,0.4,1.3,0.8c0.2,0.3,0.3,0.4,0.5,0.4s0.3-0.1,0.5-0.4
			c0.3-0.3,0.6-0.8,1.3-0.8c0.7,0,1,0.4,1.3,0.8c0.2,0.3,0.3,0.4,0.5,0.4c0.3,0,0.5,0.2,0.5,0.5C31.9,7.2,31.7,7.4,31.4,7.4z"/>
	</g>
	<g>
		<path d="M31.4,12.3c-0.7,0-1-0.4-1.3-0.8c-0.5-0.6-0.6-0.6-1.1,0c-0.3,0.3-0.6,0.8-1.3,0.8s-1-0.4-1.3-0.8c-0.5-0.6-0.6-0.6-1.1,0
			c-0.3,0.3-0.6,0.8-1.3,0.8c-0.7,0-1-0.4-1.3-0.8c-0.5-0.6-0.6-0.6-1.1,0c-0.3,0.3-0.6,0.8-1.3,0.8c-0.7,0-1-0.4-1.3-0.8
			c-0.5-0.6-0.6-0.6-1.1,0c-0.3,0.3-0.6,0.8-1.3,0.8c-0.7,0-1-0.4-1.3-0.8c-0.5-0.6-0.6-0.6-1.1,0c-0.3,0.3-0.6,0.8-1.3,0.8
			c-0.7,0-1-0.4-1.3-0.8c-0.5-0.6-0.6-0.6-1.1,0c-0.3,0.3-0.6,0.8-1.3,0.8c-0.7,0-1-0.4-1.3-0.8c-0.5-0.6-0.6-0.6-1.1,0
			c-0.3,0.3-0.6,0.8-1.3,0.8s-1-0.4-1.3-0.8C4.2,11,4,11,3.6,11.5c-0.3,0.3-0.6,0.8-1.3,0.8s-1-0.4-1.3-0.8
			c-0.2-0.3-0.3-0.4-0.5-0.4c-0.3,0-0.5-0.2-0.5-0.5s0.2-0.5,0.5-0.5c0.7,0,1,0.4,1.3,0.8c0.5,0.6,0.6,0.6,1.1,0
			c0.3-0.3,0.6-0.8,1.3-0.8s1,0.4,1.3,0.8c0.5,0.6,0.6,0.6,1.1,0c0.3-0.3,0.6-0.8,1.3-0.8s1,0.4,1.3,0.8c0.5,0.6,0.6,0.6,1.1,0
			c0.3-0.3,0.6-0.8,1.3-0.8s1,0.4,1.3,0.8c0.5,0.6,0.6,0.6,1.1,0c0.3-0.3,0.6-0.8,1.3-0.8c0.7,0,1,0.4,1.3,0.8
			c0.5,0.6,0.6,0.6,1.1,0c0.3-0.3,0.6-0.8,1.3-0.8c0.7,0,1,0.4,1.3,0.8c0.5,0.6,0.6,0.6,1.1,0c0.3-0.3,0.6-0.8,1.3-0.8
			c0.7,0,1,0.4,1.3,0.8c0.5,0.6,0.6,0.6,1.1,0c0.3-0.3,0.6-0.8,1.3-0.8c0.7,0,1,0.4,1.3,0.8c0.5,0.6,0.6,0.6,1.1,0
			c0.3-0.3,0.6-0.8,1.3-0.8c0.7,0,1,0.4,1.3,0.8c0.2,0.3,0.3,0.4,0.5,0.4c0.3,0,0.5,0.2,0.5,0.5S31.7,12.3,31.4,12.3z"/>
	</g>
	<g>
		<path d="M31.4,17.2c-0.7,0-1-0.4-1.3-0.8c-0.5-0.6-0.6-0.6-1.1,0c-0.3,0.3-0.6,0.8-1.3,0.8s-1-0.4-1.3-0.8c-0.5-0.6-0.6-0.6-1.1,0
			c-0.3,0.3-0.6,0.8-1.3,0.8c-0.7,0-1-0.4-1.3-0.8c-0.5-0.6-0.6-0.6-1.1,0c-0.3,0.3-0.6,0.8-1.3,0.8c-0.7,0-1-0.4-1.3-0.8
			c-0.5-0.6-0.6-0.6-1.1,0c-0.3,0.3-0.6,0.8-1.3,0.8c-0.7,0-1-0.4-1.3-0.8c-0.5-0.6-0.6-0.6-1.1,0c-0.3,0.3-0.6,0.8-1.3,0.8
			c-0.7,0-1-0.4-1.3-0.8c-0.5-0.6-0.6-0.6-1.1,0c-0.3,0.3-0.6,0.8-1.3,0.8c-0.7,0-1-0.4-1.3-0.8c-0.5-0.6-0.6-0.6-1.1,0
			c-0.3,0.3-0.6,0.8-1.3,0.8s-1-0.4-1.3-0.8c-0.5-0.6-0.6-0.6-1.1,0c-0.3,0.3-0.6,0.8-1.3,0.8s-1-0.4-1.3-0.8
			c-0.2-0.3-0.3-0.4-0.5-0.4c-0.3,0-0.5-0.2-0.5-0.5s0.2-0.5,0.5-0.5c0.7,0,1,0.4,1.3,0.8c0.5,0.6,0.6,0.6,1.1,0
			c0.3-0.3,0.6-0.8,1.3-0.8s1,0.4,1.3,0.8c0.5,0.6,0.6,0.6,1.1,0c0.3-0.3,0.6-0.8,1.3-0.8s1,0.4,1.3,0.8c0.5,0.6,0.6,0.6,1.1,0
			c0.3-0.3,0.6-0.8,1.3-0.8s1,0.4,1.3,0.8c0.5,0.6,0.6,0.6,1.1,0c0.3-0.3,0.6-0.8,1.3-0.8c0.7,0,1,0.4,1.3,0.8
			c0.5,0.6,0.6,0.6,1.1,0c0.3-0.3,0.6-0.8,1.3-0.8c0.7,0,1,0.4,1.3,0.8c0.5,0.6,0.6,0.6,1.1,0c0.3-0.3,0.6-0.8,1.3-0.8
			c0.7,0,1,0.4,1.3,0.8c0.5,0.6,0.6,0.6,1.1,0c0.3-0.3,0.6-0.8,1.3-0.8c0.7,0,1,0.4,1.3,0.8c0.5,0.6,0.6,0.6,1.1,0
			c0.3-0.3,0.6-0.8,1.3-0.8c0.7,0,1,0.4,1.3,0.8c0.2,0.3,0.3,0.4,0.5,0.4c0.3,0,0.5,0.2,0.5,0.5C31.9,17,31.7,17.2,31.4,17.2z"/>
	</g>
	<g>
		<path d="M31.4,22.2c-0.7,0-1-0.4-1.3-0.8c-0.2-0.3-0.3-0.4-0.5-0.4c-0.2,0-0.3,0.1-0.5,0.4c-0.3,0.3-0.6,0.8-1.3,0.8
			s-1-0.4-1.3-0.8c-0.5-0.6-0.6-0.6-1.1,0c-0.3,0.3-0.6,0.8-1.3,0.8c-0.7,0-1-0.4-1.3-0.8c-0.5-0.6-0.6-0.6-1.1,0
			c-0.3,0.3-0.6,0.8-1.3,0.8c-0.7,0-1-0.4-1.3-0.8c-0.5-0.6-0.6-0.6-1.1,0c-0.3,0.3-0.6,0.8-1.3,0.8c-0.7,0-1-0.4-1.3-0.8
			C15.3,21.1,15.2,21,15,21c-0.2,0-0.3,0.1-0.5,0.4c-0.3,0.3-0.6,0.8-1.3,0.8c-0.7,0-1-0.4-1.3-0.8c-0.5-0.6-0.6-0.6-1.1,0
			c-0.3,0.3-0.6,0.8-1.3,0.8c-0.7,0-1-0.4-1.3-0.8c-0.5-0.6-0.6-0.6-1.1,0c-0.3,0.3-0.6,0.8-1.3,0.8s-1-0.4-1.3-0.8
			c-0.5-0.6-0.6-0.6-1.1,0c-0.3,0.3-0.6,0.8-1.3,0.8s-1-0.4-1.3-0.8C0.8,21.1,0.7,21,0.5,21C0.2,21,0,20.8,0,20.5
			c0-0.3,0.2-0.5,0.5-0.5c0.7,0,1,0.4,1.3,0.8c0.5,0.6,0.6,0.6,1.1,0c0.3-0.3,0.6-0.8,1.3-0.8s1,0.4,1.3,0.8c0.5,0.6,0.6,0.6,1.1,0
			c0.3-0.3,0.6-0.8,1.3-0.8s1,0.4,1.3,0.8c0.5,0.6,0.6,0.6,1.1,0c0.3-0.3,0.6-0.8,1.3-0.8s1,0.4,1.3,0.8c0.5,0.6,0.6,0.6,1.1,0
			c0.3-0.3,0.6-0.8,1.3-0.8c0.7,0,1,0.4,1.3,0.8c0.5,0.6,0.6,0.6,1.1,0c0.3-0.3,0.6-0.8,1.3-0.8c0.7,0,1,0.4,1.3,0.8
			c0.5,0.6,0.6,0.6,1.1,0c0.3-0.3,0.6-0.8,1.3-0.8c0.7,0,1,0.4,1.3,0.8c0.5,0.6,0.6,0.6,1.1,0c0.3-0.3,0.6-0.8,1.3-0.8
			c0.7,0,1,0.4,1.3,0.8c0.2,0.3,0.3,0.4,0.5,0.4c0.2,0,0.3-0.1,0.5-0.4c0.3-0.3,0.6-0.8,1.3-0.8c0.7,0,1,0.4,1.3,0.8
			c0.2,0.3,0.3,0.4,0.5,0.4c0.3,0,0.5,0.2,0.5,0.5C31.9,22,31.7,22.2,31.4,22.2z"/>
	</g>
	<g>
		<path d="M31.4,27.1c-0.7,0-1-0.4-1.3-0.8c-0.2-0.3-0.3-0.4-0.5-0.4c-0.2,0-0.3,0.1-0.5,0.4c-0.3,0.3-0.6,0.8-1.3,0.8
			s-1-0.4-1.3-0.8c-0.5-0.6-0.6-0.6-1.1,0c-0.3,0.3-0.6,0.8-1.3,0.8c-0.7,0-1-0.4-1.3-0.8c-0.5-0.6-0.6-0.6-1.1,0
			c-0.3,0.3-0.6,0.8-1.3,0.8c-0.7,0-1-0.4-1.3-0.8c-0.5-0.6-0.6-0.6-1.1,0c-0.3,0.3-0.6,0.8-1.3,0.8c-0.7,0-1-0.4-1.3-0.8
			c-0.5-0.6-0.6-0.6-1.1,0c-0.3,0.3-0.6,0.8-1.3,0.8c-0.7,0-1-0.4-1.3-0.8c-0.5-0.6-0.6-0.6-1.1,0c-0.3,0.3-0.6,0.8-1.3,0.8
			c-0.7,0-1-0.4-1.3-0.8c-0.5-0.6-0.6-0.6-1.1,0c-0.3,0.3-0.6,0.8-1.3,0.8s-1-0.4-1.3-0.8c-0.5-0.6-0.6-0.6-1.1,0
			c-0.3,0.3-0.6,0.8-1.3,0.8s-1-0.4-1.3-0.8c-0.2-0.3-0.3-0.4-0.5-0.4c-0.3,0-0.5-0.2-0.5-0.5C0,25.2,0.2,25,0.5,25
			c0.7,0,1,0.4,1.3,0.8c0.5,0.6,0.6,0.6,1.1,0C3.1,25.4,3.4,25,4.1,25s1,0.4,1.3,0.8c0.5,0.6,0.6,0.6,1.1,0C6.7,25.4,7.1,25,7.8,25
			s1,0.4,1.3,0.8c0.5,0.6,0.6,0.6,1.1,0c0.3-0.3,0.6-0.8,1.3-0.8s1,0.4,1.3,0.8c0.5,0.6,0.6,0.6,1.1,0C14,25.4,14.4,25,15,25
			c0.7,0,1,0.4,1.3,0.8c0.5,0.6,0.6,0.6,1.1,0c0.3-0.3,0.6-0.8,1.3-0.8c0.7,0,1,0.4,1.3,0.8c0.5,0.6,0.6,0.6,1.1,0
			c0.3-0.3,0.6-0.8,1.3-0.8c0.7,0,1,0.4,1.3,0.8c0.5,0.6,0.6,0.6,1.1,0c0.3-0.3,0.6-0.8,1.3-0.8c0.7,0,1,0.4,1.3,0.8
			c0.2,0.3,0.3,0.4,0.5,0.4c0.2,0,0.3-0.1,0.5-0.4c0.3-0.3,0.6-0.8,1.3-0.8c0.7,0,1,0.4,1.3,0.8c0.2,0.3,0.3,0.4,0.5,0.4
			c0.3,0,0.5,0.2,0.5,0.5C31.9,26.9,31.7,27.1,31.4,27.1z"/>
	</g>
	<g>
		<path d="M31.4,32c-0.7,0-1-0.4-1.3-0.8c-0.2-0.3-0.3-0.4-0.5-0.4c-0.2,0-0.3,0.1-0.5,0.4c-0.3,0.3-0.6,0.8-1.3,0.8s-1-0.4-1.3-0.8
			c-0.5-0.6-0.6-0.6-1.1,0c-0.3,0.3-0.6,0.8-1.3,0.8c-0.7,0-1-0.4-1.3-0.8c-0.5-0.6-0.6-0.6-1.1,0c-0.3,0.3-0.6,0.8-1.3,0.8
			c-0.7,0-1-0.4-1.3-0.8c-0.5-0.6-0.6-0.6-1.1,0c-0.3,0.3-0.6,0.8-1.3,0.8c-0.7,0-1-0.4-1.3-0.8c-0.2-0.3-0.3-0.4-0.5-0.4
			c-0.2,0-0.3,0.1-0.5,0.4c-0.3,0.3-0.6,0.8-1.3,0.8c-0.7,0-1-0.4-1.3-0.8c-0.5-0.6-0.6-0.6-1.1,0c-0.3,0.3-0.6,0.8-1.3,0.8
			c-0.7,0-1-0.4-1.3-0.8c-0.5-0.6-0.6-0.6-1.1,0C7,31.6,6.6,32,5.9,32s-1-0.4-1.3-0.8c-0.5-0.6-0.6-0.6-1.1,0C3.3,31.6,3,32,2.3,32
			s-1-0.4-1.3-0.8c-0.2-0.3-0.3-0.4-0.5-0.4c-0.3,0-0.5-0.2-0.5-0.5c0-0.3,0.2-0.5,0.5-0.5c0.7,0,1,0.4,1.3,0.8
			c0.5,0.6,0.6,0.6,1.1,0c0.3-0.3,0.6-0.8,1.3-0.8s1,0.4,1.3,0.8c0.5,0.6,0.6,0.6,1.1,0c0.3-0.3,0.6-0.8,1.3-0.8s1,0.4,1.3,0.8
			c0.5,0.6,0.6,0.6,1.1,0c0.3-0.3,0.6-0.8,1.3-0.8s1,0.4,1.3,0.8c0.5,0.6,0.6,0.6,1.1,0c0.3-0.3,0.6-0.8,1.3-0.8
			c0.7,0,1,0.4,1.3,0.8c0.5,0.6,0.6,0.6,1.1,0c0.3-0.3,0.6-0.8,1.3-0.8c0.7,0,1,0.4,1.3,0.8c0.5,0.6,0.6,0.6,1.1,0
			c0.3-0.3,0.6-0.8,1.3-0.8c0.7,0,1,0.4,1.3,0.8c0.5,0.6,0.6,0.6,1.1,0c0.3-0.3,0.6-0.8,1.3-0.8c0.7,0,1,0.4,1.3,0.8
			c0.2,0.3,0.3,0.4,0.5,0.4c0.2,0,0.3-0.1,0.5-0.4c0.3-0.3,0.6-0.8,1.3-0.8c0.7,0,1,0.4,1.3,0.8c0.2,0.3,0.3,0.4,0.5,0.4
			c0.3,0,0.5,0.2,0.5,0.5C31.9,31.8,31.7,32,31.4,32z"/>
	</g>

</svg>
