<?xml version="1.0" encoding="utf-8"?>
<!-- Generator: Adobe Illustrator 20.1.0, SVG Export Plug-In . SVG Version: 6.00 Build 0)  -->
<!DOCTYPE svg PUBLIC "-//W3C//DTD SVG 1.0//EN" "http://www.w3.org/TR/2001/REC-SVG-20010904/DTD/svg10.dtd">
<svg version="1.0" id="Layer_1" xmlns="http://www.w3.org/2000/svg" xmlns:xlink="http://www.w3.org/1999/xlink" x="0px" y="0px"
	 width="32px" height="32px" viewBox="0 0 32 32" style="enable-background:new 0 0 32 32;" xml:space="preserve">

<g>
	<path d="M16,32C7.2,32,0,24.8,0,16S7.2,0,16,0s16,7.2,16,16S24.8,32,16,32z M16,1.1C7.8,1.1,1.1,7.8,1.1,16S7.8,30.9,16,30.9
		S30.9,24.2,30.9,16S24.2,1.1,16,1.1z"/>
</g>
<g>
	<path d="M16,29.4c-7.4,0-13.4-6-13.4-13.4S8.6,2.6,16,2.6s13.4,6,13.4,13.4S23.4,29.4,16,29.4z M16,3.7C9.2,3.7,3.7,9.2,3.7,16
		S9.2,28.3,16,28.3S28.3,22.8,28.3,16S22.8,3.7,16,3.7z"/>
</g>
<g>
	<path d="M16,26.8C10,26.8,5.2,22,5.2,16S10,5.2,16,5.2S26.8,10,26.8,16S22,26.8,16,26.8z M16,6.2c-5.4,0-9.8,4.4-9.8,9.8
		c0,5.4,4.4,9.8,9.8,9.8c5.4,0,9.8-4.4,9.8-9.8C25.8,10.6,21.4,6.2,16,6.2z"/>
</g>
<g>
	<path d="M16,24.3c-4.6,0-8.3-3.7-8.3-8.3s3.7-8.3,8.3-8.3s8.3,3.7,8.3,8.3S20.6,24.3,16,24.3z M16,8.8c-4,0-7.2,3.2-7.2,7.2
		c0,4,3.2,7.2,7.2,7.2c4,0,7.2-3.2,7.2-7.2C23.2,12,20,8.8,16,8.8z"/>
</g>
<g>
	<path d="M16,21.7c-3.1,0-5.7-2.6-5.7-5.7c0-3.1,2.6-5.7,5.7-5.7c3.1,0,5.7,2.6,5.7,5.7C21.7,19.1,19.1,21.7,16,21.7z M16,11.4
		c-2.5,0-4.6,2.1-4.6,4.6c0,2.5,2.1,4.6,4.6,4.6c2.5,0,4.6-2.1,4.6-4.6C20.6,13.5,18.5,11.4,16,11.4z"/>
</g>
<g>
	<path d="M16,19.1c-1.7,0-3.1-1.4-3.1-3.1s1.4-3.1,3.1-3.1s3.1,1.4,3.1,3.1S17.7,19.1,16,19.1z M16,14c-1.1,0-2,0.9-2,2
		c0,1.1,0.9,2,2,2c1.1,0,2-0.9,2-2C18,14.9,17.1,14,16,14z"/>
</g>

	
</svg>
