<?xml version="1.0" encoding="utf-8"?>
<!-- Generator: Adobe Illustrator 20.1.0, SVG Export Plug-In . SVG Version: 6.00 Build 0)  -->
<!DOCTYPE svg PUBLIC "-//W3C//DTD SVG 1.0//EN" "http://www.w3.org/TR/2001/REC-SVG-20010904/DTD/svg10.dtd" [
	<!ENTITY st0 "fill:none;">
]>
<svg version="1.0" id="Layer_1" xmlns="http://www.w3.org/2000/svg" xmlns:xlink="http://www.w3.org/1999/xlink" x="0px" y="0px"
	 width="32px" height="32px" viewBox="0 0 32 32" style="enable-background:new 0 0 32 32;" xml:space="preserve">

	<polygon style="&st0;" points="20.1,0 32,11.8 32,9 23,0 	"/>
	<polygon style="&st0;" points="0.1,22.6 9.4,31.8 12.3,31.8 0.1,19.7 	"/>
	<polygon style="&st0;" points="0.1,31.8 2.8,31.8 0.1,29.2 	"/>
	<polygon style="&st0;" points="0.1,27.3 4.7,31.8 7.5,31.8 0.1,24.4 	"/>
	<polygon style="&st0;" points="15.4,0 32,16.6 32,13.7 18.3,0 	"/>
	<polygon style="&st0;" points="24.9,0 32,7.1 32,4.2 27.7,0 	"/>
	<polygon style="&st0;" points="0.1,3.6 28.3,31.8 31.2,31.8 0.1,0.8 	"/>
	<polygon style="&st0;" points="1.2,0 32,30.8 32,27.9 4.1,0 	"/>
	<polygon style="&st0;" points="5.9,0 32,26 32,23.2 8.8,0 	"/>
	<polygon style="&st0;" points="10.7,0 32,21.3 32,18.4 13.5,0 	"/>
	<polygon style="&st0;" points="0.1,8.4 23.6,31.8 26.5,31.8 0.1,5.5 	"/>
	<polygon style="&st0;" points="0.1,17.8 14.1,31.8 17,31.8 0.1,15 	"/>
	<polygon style="&st0;" points="0.1,13.1 18.9,31.8 21.7,31.8 0.1,10.2 	"/>
	<polygon style="&st0;" points="32,0 29.6,0 32,2.4 	"/>
	<polygon points="29.6,0 27.7,0 32,4.2 32,2.4 	"/>
	<polygon points="23,0 32,9 32,7.1 24.9,0 	"/>
	<polygon points="18.3,0 32,13.7 32,11.8 20.1,0 	"/>
	<polygon points="13.5,0 32,18.4 32,16.6 15.4,0 	"/>
	<polygon points="8.8,0 32,23.2 32,21.3 10.7,0 	"/>
	<polygon points="4.1,0 32,27.9 32,26 5.9,0 	"/>
	<polygon points="0.1,5.5 26.5,31.8 28.3,31.8 0.1,3.6 	"/>
	<polygon points="0.1,0 0.1,0.8 31.2,31.8 32,31.8 32,30.8 1.2,0 	"/>
	<polygon points="0.1,10.2 21.7,31.8 23.6,31.8 0.1,8.4 	"/>
	<polygon points="0.1,15 17,31.8 18.9,31.8 0.1,13.1 	"/>
	<polygon points="0.1,19.7 12.3,31.8 14.1,31.8 0.1,17.8 	"/>
	<polygon points="0.1,24.4 7.5,31.8 9.4,31.8 0.1,22.6 	"/>
	<polygon points="0.1,29.2 2.8,31.8 4.7,31.8 0.1,27.3 	"/>

</svg>
