<?xml version="1.0" encoding="utf-8"?>
<!-- Generator: Adobe Illustrator 20.1.0, SVG Export Plug-In . SVG Version: 6.00 Build 0)  -->
<!DOCTYPE svg PUBLIC "-//W3C//DTD SVG 1.0//EN" "http://www.w3.org/TR/2001/REC-SVG-20010904/DTD/svg10.dtd">
<svg version="1.0" id="Layer_1" xmlns="http://www.w3.org/2000/svg" xmlns:xlink="http://www.w3.org/1999/xlink" x="0px" y="0px"
	 width="32px" height="32px" viewBox="0 0 32 32" style="enable-background:new 0 0 32 32;" xml:space="preserve">
<ellipse transform="matrix(0.7071 -0.7071 0.7071 0.7071 2.5394 9.2079)" cx="12.4" cy="1.5" rx="1.5" ry="1.5"/>
<ellipse transform="matrix(0.7071 -0.7071 0.7071 0.7071 0.4216 4.095)" cx="5.2" cy="1.5" rx="1.5" ry="1.5"/>
<ellipse transform="matrix(0.7071 -0.7071 0.7071 0.7071 -1.0759 7.7104)" cx="8.8" cy="5.2" rx="1.5" ry="1.5"/>
<ellipse transform="matrix(0.7071 -0.7071 0.7071 0.7071 1.0419 12.8233)" cx="16" cy="5.2" rx="1.5" ry="1.5"/>
<ellipse transform="matrix(0.7071 -0.7071 0.7071 0.7071 -0.4556 16.4386)" cx="19.6" cy="8.8" rx="1.5" ry="1.5"/>
<ellipse transform="matrix(0.7071 -0.7071 0.7071 0.7071 -2.5735 11.3258)" cx="12.4" cy="8.8" rx="1.5" ry="1.5"/>
<ellipse transform="matrix(0.7071 -0.7071 0.7071 0.7071 -4.071 14.9411)" cx="16" cy="12.4" rx="1.5" ry="1.5"/>
<ellipse transform="matrix(0.7071 -0.7071 0.7071 0.7071 -1.9532 20.054)" cx="23.2" cy="12.4" rx="1.5" ry="1.5"/>
<ellipse transform="matrix(0.7071 -0.7071 0.7071 0.7071 -3.4507 23.6693)" cx="26.8" cy="16" rx="1.5" ry="1.5"/>
<ellipse transform="matrix(0.7071 -0.7071 0.7071 0.7071 -5.5685 18.5564)" cx="19.6" cy="16" rx="1.5" ry="1.5"/>
<ellipse transform="matrix(0.7071 -0.7071 0.7071 0.7071 -7.066 22.1719)" cx="23.2" cy="19.6" rx="1.5" ry="1.5"/>
<ellipse transform="matrix(0.7071 -0.7071 0.7071 0.7071 -4.9482 27.2846)" cx="30.5" cy="19.6" rx="1.5" ry="1.5"/>
<ellipse transform="matrix(0.7071 -0.7071 0.7071 0.7071 -8.5636 25.7871)" cx="26.8" cy="23.2" rx="1.5" ry="1.5"/>
<ellipse transform="matrix(0.7071 -0.7071 0.7071 0.7071 -10.0611 29.4023)" cx="30.5" cy="26.8" rx="1.5" ry="1.5"/>
<ellipse transform="matrix(0.7071 -0.7071 0.7071 0.7071 -3.1938 2.5975)" cx="1.5" cy="5.2" rx="1.5" ry="1.5"/>
<ellipse transform="matrix(0.7071 -0.7071 0.7071 0.7071 -4.6913 6.2129)" cx="5.2" cy="8.8" rx="1.5" ry="1.5"/>
<ellipse transform="matrix(0.7071 -0.7071 0.7071 0.7071 -8.3066 4.7154)" cx="1.5" cy="12.4" rx="1.5" ry="1.5"/>
<ellipse transform="matrix(0.7071 -0.7071 0.7071 0.7071 -6.1888 9.8282)" cx="8.8" cy="12.4" rx="1.5" ry="1.5"/>
<ellipse transform="matrix(0.7071 -0.7071 0.7071 0.7071 -7.6863 13.4436)" cx="12.4" cy="16" rx="1.5" ry="1.5"/>
<ellipse transform="matrix(0.7071 -0.7071 0.7071 0.7071 -9.8041 8.3307)" cx="5.2" cy="16" rx="1.5" ry="1.5"/>
<ellipse transform="matrix(0.7071 -0.7071 0.7071 0.7071 -11.3017 11.9461)" cx="8.8" cy="19.6" rx="1.5" ry="1.5"/>
<ellipse transform="matrix(0.7071 -0.7071 0.7071 0.7071 -9.1839 17.059)" cx="16" cy="19.6" rx="1.5" ry="1.5"/>
<ellipse transform="matrix(0.7071 -0.7071 0.7071 0.7071 -10.6814 20.6743)" cx="19.6" cy="23.2" rx="1.5" ry="1.5"/>
<ellipse transform="matrix(0.7071 -0.7071 0.7071 0.7071 -12.7992 15.5614)" cx="12.4" cy="23.2" rx="1.5" ry="1.5"/>
<ellipse transform="matrix(0.7071 -0.7071 0.7071 0.7071 -14.2967 19.1767)" cx="16" cy="26.8" rx="1.5" ry="1.5"/>
<ellipse transform="matrix(0.7071 -0.7071 0.7071 0.7071 -12.1789 24.2896)" cx="23.2" cy="26.8" rx="1.5" ry="1.5"/>
<ellipse transform="matrix(0.7071 -0.7071 0.7071 0.7071 -13.6764 27.9049)" cx="26.8" cy="30.5" rx="1.5" ry="1.5"/>
<ellipse transform="matrix(0.7071 -0.7071 0.7071 0.7071 -15.7942 22.7921)" cx="19.6" cy="30.5" rx="1.5" ry="1.5"/>
<ellipse transform="matrix(0.7071 -0.7071 0.7071 0.7071 -13.4195 6.8332)" cx="1.5" cy="19.6" rx="1.5" ry="1.5"/>
<ellipse transform="matrix(0.7071 -0.7071 0.7071 0.7071 -14.917 10.4485)" cx="5.2" cy="23.2" rx="1.5" ry="1.5"/>
<ellipse transform="matrix(0.7071 -0.7071 0.7071 0.7071 -18.5324 8.951)" cx="1.5" cy="26.8" rx="1.5" ry="1.5"/>
<ellipse transform="matrix(0.7071 -0.7071 0.7071 0.7071 -16.4145 14.0639)" cx="8.8" cy="26.8" rx="1.5" ry="1.5"/>
<ellipse transform="matrix(0.7071 -0.7071 0.7071 0.7071 -17.9121 17.6792)" cx="12.4" cy="30.5" rx="1.5" ry="1.5"/>
<ellipse transform="matrix(0.7071 -0.7071 0.7071 0.7071 -20.0298 12.5663)" cx="5.2" cy="30.5" rx="1.5" ry="1.5"/>
<ellipse transform="matrix(0.7071 -0.7071 0.7071 0.7071 6.775 19.4337)" cx="26.8" cy="1.5" rx="1.5" ry="1.5"/>
<ellipse transform="matrix(0.7071 -0.7071 0.7071 0.7071 4.6572 14.3208)" cx="19.6" cy="1.5" rx="1.5" ry="1.5"/>
<ellipse transform="matrix(0.7071 -0.7071 0.7071 0.7071 3.1597 17.9361)" cx="23.2" cy="5.2" rx="1.5" ry="1.5"/>
<ellipse transform="matrix(0.7071 -0.7071 0.7071 0.7071 5.2775 23.0489)" cx="30.5" cy="5.2" rx="1.5" ry="1.5"/>
<ellipse transform="matrix(0.7071 -0.7071 0.7071 0.7071 1.6622 21.5515)" cx="26.8" cy="8.8" rx="1.5" ry="1.5"/>
<ellipse transform="matrix(0.7071 -0.7071 0.7071 0.7071 0.1646 25.1667)" cx="30.5" cy="12.4" rx="1.5" ry="1.5"/>

</svg>
